<svg width="124" height="21" viewBox="0 0 124 21" fill="none" xmlns="http://www.w3.org/2000/svg">
<path d="M2.66 13.22H7.54V15H0.38V0.879999H2.66V13.22ZM13.7453 3.84C14.7453 3.84 15.5986 4.08667 16.3053 4.58C17.012 5.07333 17.512 5.72667 17.8053 6.54V3.98H20.0853V15H17.8053V12.44C17.512 13.2533 17.012 13.9067 16.3053 14.4C15.5986 14.8933 14.7453 15.14 13.7453 15.14C12.7853 15.14 11.9253 14.9133 11.1653 14.46C10.4186 14.0067 9.83198 13.3533 9.40531 12.5C8.97865 11.6467 8.76531 10.64 8.76531 9.48C8.76531 8.33333 8.97865 7.33333 9.40531 6.48C9.83198 5.62667 10.4186 4.97333 11.1653 4.52C11.9253 4.06667 12.7853 3.84 13.7453 3.84ZM14.4453 5.84C13.432 5.84 12.6186 6.16667 12.0053 6.82C11.4053 7.46 11.1053 8.34667 11.1053 9.48C11.1053 10.6133 11.4053 11.5067 12.0053 12.16C12.6186 12.8 13.432 13.12 14.4453 13.12C15.0853 13.12 15.6586 12.9733 16.1653 12.68C16.672 12.3733 17.072 11.9467 17.3653 11.4C17.6586 10.8533 17.8053 10.2133 17.8053 9.48C17.8053 8.76 17.6586 8.12667 17.3653 7.58C17.072 7.02 16.672 6.59333 16.1653 6.3C15.6586 5.99333 15.0853 5.84 14.4453 5.84ZM28.9814 3.8C30.2614 3.8 31.2881 4.21333 32.0614 5.04C32.8347 5.86667 33.2214 7.04667 33.2214 8.58V15H30.9414V8.82C30.9414 7.83333 30.6881 7.07333 30.1814 6.54C29.6747 5.99333 28.9814 5.72 28.1014 5.72C27.1947 5.72 26.4681 6.01333 25.9214 6.6C25.3747 7.17333 25.1014 8.02 25.1014 9.14V15H22.8214V3.98H25.1014V6.4C25.3947 5.57333 25.8881 4.93333 26.5814 4.48C27.2747 4.02667 28.0747 3.8 28.9814 3.8ZM40.3078 3.84C41.3078 3.84 42.1611 4.08667 42.8678 4.58C43.5745 5.07333 44.0745 5.72667 44.3678 6.54V3.98H46.6478V15.12C46.6478 16.1467 46.4345 17.0533 46.0078 17.84C45.5945 18.64 44.9945 19.2667 44.2078 19.72C43.4211 20.1733 42.4878 20.4 41.4078 20.4C39.8611 20.4 38.6078 20.0333 37.6478 19.3C36.7011 18.5667 36.1078 17.5733 35.8678 16.32H38.1278C38.3145 16.9733 38.6745 17.48 39.2078 17.84C39.7411 18.2133 40.4211 18.4 41.2478 18.4C42.1545 18.4 42.9011 18.12 43.4878 17.56C44.0745 17 44.3678 16.1867 44.3678 15.12V12.44C44.0745 13.2533 43.5745 13.9067 42.8678 14.4C42.1611 14.8933 41.3078 15.14 40.3078 15.14C39.3478 15.14 38.4878 14.9133 37.7278 14.46C36.9811 14.0067 36.3945 13.3533 35.9678 12.5C35.5411 11.6467 35.3278 10.64 35.3278 9.48C35.3278 8.33333 35.5411 7.33333 35.9678 6.48C36.3945 5.62667 36.9811 4.97333 37.7278 4.52C38.4878 4.06667 39.3478 3.84 40.3078 3.84ZM41.0078 5.84C39.9945 5.84 39.1811 6.16667 38.5678 6.82C37.9678 7.46 37.6678 8.34667 37.6678 9.48C37.6678 10.6133 37.9678 11.5067 38.5678 12.16C39.1811 12.8 39.9945 13.12 41.0078 13.12C41.6478 13.12 42.2211 12.9733 42.7278 12.68C43.2345 12.3733 43.6345 11.9467 43.9278 11.4C44.2211 10.8533 44.3678 10.2133 44.3678 9.48C44.3678 8.76 44.2211 8.12667 43.9278 7.58C43.6345 7.02 43.2345 6.59333 42.7278 6.3C42.2211 5.99333 41.6478 5.84 41.0078 5.84ZM53.8039 3.84C54.8039 3.84 55.6572 4.08667 56.3639 4.58C57.0706 5.07333 57.5706 5.72667 57.8639 6.54V3.98H60.1439V15.12C60.1439 16.1467 59.9306 17.0533 59.5039 17.84C59.0906 18.64 58.4906 19.2667 57.7039 19.72C56.9172 20.1733 55.9839 20.4 54.9039 20.4C53.3572 20.4 52.1039 20.0333 51.1439 19.3C50.1972 18.5667 49.6039 17.5733 49.3639 16.32H51.6239C51.8106 16.9733 52.1706 17.48 52.7039 17.84C53.2372 18.2133 53.9172 18.4 54.7439 18.4C55.6506 18.4 56.3972 18.12 56.9839 17.56C57.5706 17 57.8639 16.1867 57.8639 15.12V12.44C57.5706 13.2533 57.0706 13.9067 56.3639 14.4C55.6572 14.8933 54.8039 15.14 53.8039 15.14C52.8439 15.14 51.9839 14.9133 51.2239 14.46C50.4772 14.0067 49.8906 13.3533 49.4639 12.5C49.0372 11.6467 48.8239 10.64 48.8239 9.48C48.8239 8.33333 49.0372 7.33333 49.4639 6.48C49.8906 5.62667 50.4772 4.97333 51.2239 4.52C51.9839 4.06667 52.8439 3.84 53.8039 3.84ZM54.5039 5.84C53.4906 5.84 52.6772 6.16667 52.0639 6.82C51.4639 7.46 51.1639 8.34667 51.1639 9.48C51.1639 10.6133 51.4639 11.5067 52.0639 12.16C52.6772 12.8 53.4906 13.12 54.5039 13.12C55.1439 13.12 55.7172 12.9733 56.2239 12.68C56.7306 12.3733 57.1306 11.9467 57.4239 11.4C57.7172 10.8533 57.8639 10.2133 57.8639 9.48C57.8639 8.76 57.7172 8.12667 57.4239 7.58C57.1306 7.02 56.7306 6.59333 56.2239 6.3C55.7172 5.99333 55.1439 5.84 54.5039 5.84ZM73.04 3.98V15H70.74V12.6C70.46 13.4133 69.9733 14.0467 69.28 14.5C68.5867 14.94 67.78 15.16 66.86 15.16C65.58 15.16 64.5533 14.7467 63.78 13.92C63.0067 13.0933 62.62 11.9133 62.62 10.38V3.98H64.9V10.14C64.9 11.14 65.1533 11.9133 65.66 12.46C66.1667 12.9933 66.86 13.26 67.74 13.26C68.6467 13.26 69.3733 12.9667 69.92 12.38C70.4667 11.7933 70.74 10.94 70.74 9.82V3.98H73.04ZM80.1906 3.84C81.1906 3.84 82.044 4.08667 82.7506 4.58C83.4573 5.07333 83.9573 5.72667 84.2506 6.54V3.98H86.5306V15H84.2506V12.44C83.9573 13.2533 83.4573 13.9067 82.7506 14.4C82.044 14.8933 81.1906 15.14 80.1906 15.14C79.2306 15.14 78.3706 14.9133 77.6106 14.46C76.864 14.0067 76.2773 13.3533 75.8506 12.5C75.424 11.6467 75.2106 10.64 75.2106 9.48C75.2106 8.33333 75.424 7.33333 75.8506 6.48C76.2773 5.62667 76.864 4.97333 77.6106 4.52C78.3706 4.06667 79.2306 3.84 80.1906 3.84ZM80.8906 5.84C79.8773 5.84 79.064 6.16667 78.4506 6.82C77.8506 7.46 77.5506 8.34667 77.5506 9.48C77.5506 10.6133 77.8506 11.5067 78.4506 12.16C79.064 12.8 79.8773 13.12 80.8906 13.12C81.5306 13.12 82.104 12.9733 82.6106 12.68C83.1173 12.3733 83.5173 11.9467 83.8106 11.4C84.104 10.8533 84.2506 10.2133 84.2506 9.48C84.2506 8.76 84.104 8.12667 83.8106 7.58C83.5173 7.02 83.1173 6.59333 82.6106 6.3C82.104 5.99333 81.5306 5.84 80.8906 5.84ZM93.6867 3.84C94.6867 3.84 95.5401 4.08667 96.2467 4.58C96.9534 5.07333 97.4534 5.72667 97.7467 6.54V3.98H100.027V15.12C100.027 16.1467 99.8134 17.0533 99.3867 17.84C98.9734 18.64 98.3734 19.2667 97.5867 19.72C96.8001 20.1733 95.8667 20.4 94.7867 20.4C93.2401 20.4 91.9867 20.0333 91.0267 19.3C90.0801 18.5667 89.4867 17.5733 89.2467 16.32H91.5067C91.6934 16.9733 92.0534 17.48 92.5867 17.84C93.1201 18.2133 93.8001 18.4 94.6267 18.4C95.5334 18.4 96.2801 18.12 96.8667 17.56C97.4534 17 97.7467 16.1867 97.7467 15.12V12.44C97.4534 13.2533 96.9534 13.9067 96.2467 14.4C95.5401 14.8933 94.6867 15.14 93.6867 15.14C92.7267 15.14 91.8667 14.9133 91.1067 14.46C90.3601 14.0067 89.7734 13.3533 89.3467 12.5C88.9201 11.6467 88.7067 10.64 88.7067 9.48C88.7067 8.33333 88.9201 7.33333 89.3467 6.48C89.7734 5.62667 90.3601 4.97333 91.1067 4.52C91.8667 4.06667 92.7267 3.84 93.6867 3.84ZM94.3867 5.84C93.3734 5.84 92.5601 6.16667 91.9467 6.82C91.3467 7.46 91.0467 8.34667 91.0467 9.48C91.0467 10.6133 91.3467 11.5067 91.9467 12.16C92.5601 12.8 93.3734 13.12 94.3867 13.12C95.0267 13.12 95.6001 12.9733 96.1067 12.68C96.6134 12.3733 97.0134 11.9467 97.3067 11.4C97.6001 10.8533 97.7467 10.2133 97.7467 9.48C97.7467 8.76 97.6001 8.12667 97.3067 7.58C97.0134 7.02 96.6134 6.59333 96.1067 6.3C95.6001 5.99333 95.0267 5.84 94.3867 5.84ZM113.003 8.96C113.003 9.33333 112.976 9.66 112.923 9.94H104.443C104.483 11.0733 104.796 11.9133 105.383 12.46C105.969 13.0067 106.696 13.28 107.563 13.28C108.323 13.28 108.963 13.0867 109.483 12.7C110.016 12.3133 110.343 11.8 110.463 11.16H112.903C112.756 11.9333 112.449 12.62 111.983 13.22C111.516 13.82 110.909 14.2933 110.163 14.64C109.416 14.9733 108.583 15.14 107.663 15.14C106.596 15.14 105.649 14.9133 104.823 14.46C104.009 14.0067 103.369 13.3533 102.903 12.5C102.436 11.6467 102.203 10.64 102.203 9.48C102.203 8.33333 102.436 7.33333 102.903 6.48C103.369 5.62667 104.009 4.97333 104.823 4.52C105.649 4.06667 106.596 3.84 107.663 3.84C108.743 3.84 109.683 4.06667 110.483 4.52C111.296 4.96 111.916 5.57333 112.343 6.36C112.783 7.13333 113.003 8 113.003 8.96ZM110.703 8.9C110.729 8.18 110.603 7.58 110.323 7.1C110.056 6.60667 109.683 6.24667 109.203 6.02C108.736 5.78 108.223 5.66 107.663 5.66C106.769 5.66 106.023 5.93333 105.423 6.48C104.823 7.02667 104.496 7.83333 104.443 8.9H110.703ZM118.824 3.84C120.118 3.84 121.151 4.17333 121.924 4.84C122.711 5.49333 123.191 6.37333 123.364 7.48H121.204C121.111 6.88 120.851 6.4 120.424 6.04C120.011 5.66667 119.458 5.48 118.764 5.48C118.191 5.48 117.744 5.62 117.424 5.9C117.118 6.16667 116.964 6.53333 116.964 7C116.964 7.34667 117.078 7.62667 117.304 7.84C117.531 8.05333 117.811 8.22 118.144 8.34C118.491 8.46 118.978 8.59333 119.604 8.74C120.431 8.92667 121.098 9.12 121.604 9.32C122.124 9.52 122.564 9.84 122.924 10.28C123.298 10.7067 123.484 11.2933 123.484 12.04C123.484 12.96 123.131 13.7067 122.424 14.28C121.731 14.8533 120.791 15.14 119.604 15.14C118.231 15.14 117.118 14.82 116.264 14.18C115.424 13.54 114.918 12.6467 114.744 11.5H116.964C117.031 12.1 117.298 12.5867 117.764 12.96C118.231 13.3333 118.844 13.52 119.604 13.52C120.151 13.52 120.578 13.38 120.884 13.1C121.204 12.8067 121.364 12.44 121.364 12C121.364 11.6133 121.244 11.3067 121.004 11.08C120.764 10.8533 120.464 10.68 120.104 10.56C119.744 10.4267 119.251 10.2933 118.624 10.16C117.824 9.97333 117.171 9.78667 116.664 9.6C116.171 9.41333 115.744 9.11333 115.384 8.7C115.038 8.27333 114.864 7.7 114.864 6.98C114.864 6.04667 115.211 5.29333 115.904 4.72C116.611 4.13333 117.584 3.84 118.824 3.84Z" fill="black"/>
</svg>
