<svg width="47" height="17" viewBox="0 0 47 17" fill="none" xmlns="http://www.w3.org/2000/svg">
<path d="M10.66 12.3867C10.66 13.0801 10.4933 13.7267 10.16 14.3267C9.82667 14.9134 9.32 15.3867 8.64 15.7467C7.96 16.1067 7.12667 16.2867 6.14 16.2867C5.18 16.2867 4.32 16.1201 3.56 15.7867C2.8 15.4401 2.19333 14.9601 1.74 14.3467C1.28667 13.7334 1.02667 13.0267 0.96 12.2267H3.4C3.46667 12.8401 3.72667 13.3667 4.18 13.8067C4.64667 14.2467 5.26667 14.4667 6.04 14.4667C6.73333 14.4667 7.26667 14.2801 7.64 13.9067C8.02667 13.5334 8.22 13.0534 8.22 12.4667C8.22 11.9601 8.08 11.5467 7.8 11.2267C7.52 10.8934 7.17333 10.6334 6.76 10.4467C6.34667 10.2601 5.78 10.0467 5.06 9.80673C4.18 9.52673 3.46 9.24673 2.9 8.96673C2.35333 8.68673 1.88667 8.28006 1.5 7.74673C1.11333 7.21339 0.92 6.51339 0.92 5.64673C0.92 4.88673 1.10667 4.22006 1.48 3.64673C1.85333 3.07339 2.38667 2.63339 3.08 2.32673C3.77333 2.00673 4.57333 1.84673 5.48 1.84673C6.92 1.84673 8.06 2.19339 8.9 2.88673C9.75333 3.58006 10.24 4.48673 10.36 5.60673H7.9C7.80667 5.07339 7.55333 4.62006 7.14 4.24673C6.74 3.86006 6.18667 3.66673 5.48 3.66673C4.84 3.66673 4.32667 3.83339 3.94 4.16673C3.55333 4.48673 3.36 4.95339 3.36 5.56673C3.36 6.04673 3.49333 6.44673 3.76 6.76673C4.02667 7.07339 4.36 7.32006 4.76 7.50673C5.17333 7.68006 5.73333 7.88673 6.44 8.12673C7.33333 8.40673 8.06 8.69339 8.62 8.98673C9.19333 9.26673 9.67333 9.68006 10.06 10.2267C10.46 10.7734 10.66 11.4934 10.66 12.3867ZM19.1825 16.1467L15.2225 11.2467V16.1467H12.9425V1.34673H15.2225V9.82673L19.1425 5.12673H21.8825L17.0825 10.6067L22.0025 16.1467H19.1825ZM23.1694 1.92673C23.1694 1.54006 23.3027 1.22006 23.5694 0.966727C23.836 0.713394 24.1894 0.586727 24.6294 0.586727C25.0694 0.586727 25.4227 0.713394 25.6894 0.966727C25.9694 1.22006 26.1094 1.54006 26.1094 1.92673C26.1094 2.31339 25.9694 2.62673 25.6894 2.86673C25.4227 3.10673 25.0694 3.22673 24.6294 3.22673C24.1894 3.22673 23.836 3.10673 23.5694 2.86673C23.3027 2.62673 23.1694 2.31339 23.1694 1.92673ZM25.7694 5.12673V16.1467H23.4894V5.12673H25.7694ZM30.8084 1.34673V16.1467H28.5284V1.34673H30.8084ZM35.8475 1.34673V16.1467H33.5675V1.34673H35.8475ZM42.2266 4.98673C43.5199 4.98673 44.5532 5.32006 45.3266 5.98673C46.1132 6.64006 46.5932 7.52006 46.7666 8.62673H44.6066C44.5132 8.02673 44.2532 7.54673 43.8266 7.18673C43.4132 6.81339 42.8599 6.62673 42.1666 6.62673C41.5932 6.62673 41.1466 6.76673 40.8266 7.04673C40.5199 7.31339 40.3666 7.68006 40.3666 8.14673C40.3666 8.49339 40.4799 8.77339 40.7066 8.98673C40.9332 9.20006 41.2132 9.36673 41.5466 9.48673C41.8932 9.60673 42.3799 9.74006 43.0066 9.88673C43.8332 10.0734 44.4999 10.2667 45.0066 10.4667C45.5266 10.6667 45.9666 10.9867 46.3266 11.4267C46.6999 11.8534 46.8866 12.4401 46.8866 13.1867C46.8866 14.1067 46.5332 14.8534 45.8266 15.4267C45.1332 16.0001 44.1932 16.2867 43.0066 16.2867C41.6332 16.2867 40.5199 15.9667 39.6666 15.3267C38.8266 14.6867 38.3199 13.7934 38.1466 12.6467H40.3666C40.4332 13.2467 40.6999 13.7334 41.1666 14.1067C41.6332 14.4801 42.2466 14.6667 43.0066 14.6667C43.5532 14.6667 43.9799 14.5267 44.2866 14.2467C44.6066 13.9534 44.7666 13.5867 44.7666 13.1467C44.7666 12.7601 44.6466 12.4534 44.4066 12.2267C44.1666 12.0001 43.8666 11.8267 43.5066 11.7067C43.1466 11.5734 42.6532 11.4401 42.0266 11.3067C41.2266 11.1201 40.5732 10.9334 40.0666 10.7467C39.5732 10.5601 39.1466 10.2601 38.7866 9.84673C38.4399 9.42006 38.2666 8.84673 38.2666 8.12673C38.2666 7.19339 38.6132 6.44006 39.3066 5.86673C40.0132 5.28006 40.9866 4.98673 42.2266 4.98673Z" fill="black"/>
</svg>
